<svg xmlns="http://www.w3.org/2000/svg" width="100%" height="100%" viewBox="0 0 1920 1080" preserveAspectRatio="xMidYMid slice">
  <defs>
    <linearGradient id="grad1" x1="0%" y1="0%" x2="100%" y2="100%">
      <stop offset="0%" style="stop-color:#0070f3;stop-opacity:0.05" />
      <stop offset="100%" style="stop-color:#6d28d9;stop-opacity:0.05" />
    </linearGradient>
    <linearGradient id="grad2" x1="100%" y1="0%" x2="0%" y2="100%">
      <stop offset="0%" style="stop-color:#0070f3;stop-opacity:0.05" />
      <stop offset="100%" style="stop-color:#6d28d9;stop-opacity:0.05" />
    </linearGradient>
  </defs>
  <rect width="100%" height="100%" fill="url(#grad1)" />
  <g fill="none" stroke="#0070f3" stroke-width="1" stroke-opacity="0.15">
    <path d="M0,0 L1920,1080 M1920,0 L0,1080" />
    <path d="M0,540 L1920,540 M960,0 L960,1080" />
    <path d="M0,270 L1920,270 M0,810 L1920,810" />
    <path d="M480,0 L480,1080 M1440,0 L1440,1080" />
  </g>
  <g fill="#0070f3" fill-opacity="0.05">
    <circle cx="480" cy="270" r="5" />
    <circle cx="480" cy="810" r="5" />
    <circle cx="1440" cy="270" r="5" />
    <circle cx="1440" cy="810" r="5" />
    <circle cx="960" cy="540" r="10" />
  </g>
  <g fill="#6d28d9" fill-opacity="0.05">
    <circle cx="480" cy="540" r="5" />
    <circle cx="960" cy="270" r="5" />
    <circle cx="960" cy="810" r="5" />
    <circle cx="1440" cy="540" r="5" />
  </g>
  <path d="M0,0 C320,180 640,270 960,270 C1280,270 1600,180 1920,0 L1920,1080 C1600,900 1280,810 960,810 C640,810 320,900 0,1080 Z" fill="url(#grad2)" />
</svg> 